<svg xmlns="http://www.w3.org/2000/svg" width="93.583" height="74.549" viewBox="0 0 93.583 74.549">
  <path id="bootstrap" d="M1377.491-32.5a9.329,9.329,0,0,0-9.129,9.742c.184,4.869-.046,11.176-1.628,16.319-1.606,5.158-4.29,8.426-8.693,8.845V7.141c4.4.42,7.088,3.687,8.693,8.845,1.582,5.143,1.812,11.45,1.628,16.319a9.329,9.329,0,0,0,9.129,9.742h54.7a9.309,9.309,0,0,0,9.1-9.742c-.16-4.87.046-11.176,1.652-16.319,1.582-5.158,4.266-8.426,8.67-8.845V2.4c-4.4-.42-7.088-3.687-8.67-8.845-1.606-5.142-1.812-11.45-1.652-16.319a9.31,9.31,0,0,0-9.1-9.742h-54.728Zm43.993,45.89c0,6.979-5.206,11.212-13.831,11.212h-14.726a1.467,1.467,0,0,1-1.1-.464,1.5,1.5,0,0,1-.482-1.122V-13.468a1.5,1.5,0,0,1,.482-1.122,1.466,1.466,0,0,1,1.1-.464h14.634c7.2,0,11.927,3.9,11.927,9.893a8.866,8.866,0,0,1-7.225,8.629v.22C1417.768,4.292,1421.484,8.112,1421.484,13.388Zm-15.436-23.414h-8.4V1.818h7.065c5.459,0,8.464-2.2,8.464-6.128C1413.181-7.992,1410.588-10.026,1406.048-10.026Zm-8.4,16.543V19.57h8.693c5.688,0,8.693-2.281,8.693-6.568s-3.1-6.486-9.061-6.486Z" transform="translate(-1358.04 32.502)" fill="#702bf9" fill-rule="evenodd"/>
</svg>
