<svg id="css" xmlns="http://www.w3.org/2000/svg" width="69.101" height="97.538" viewBox="0 0 69.101 97.538">
  <path id="Path_9" data-name="Path 9" d="M612.018-41.9,583.8-49.73l-6.287-70.534h69.1l-6.3,70.524Z" transform="translate(-577.51 139.433)" fill="#254de3"/>
  <path id="Path_10" data-name="Path 10" d="M610.412-58.322l5.378-60.267H587.545v66.605Z" transform="translate(-552.996 143.525)" fill="#2965f1"/>
  <path id="Path_11" data-name="Path 11" d="M602.935-76.1l-.038.01-9.633-2.6-.616-6.9h-8.683l1.212,13.585,17.72,4.92.038-.014Zm-21.69-39.975.785,8.648h20.9v-8.648ZM582.8-98.569l.774,8.652h19.359v-8.652Z" transform="translate(-568.386 149.664)" fill="#eaeaeb"/>
  <path id="Path_12" data-name="Path 12" d="M607.379-125.832h10.48v3.811h-6.1v.761h6.1v8.762h-10.48v-4h6.1v-.761h-6.1Zm-12.573,0h10.48v3.811h-6.1v.761h6.1v8.762h-10.48v-4h6.1v-.761h-6.1Zm-12.573,0h10.48v4.383h-6.1v4.379h6.1v4.383h-10.48Z" transform="translate(-565.972 125.832)"/>
  <path id="Path_13" data-name="Path 13" d="M607.643-98.569l1.563-17.507H587.537v8.648h12.188l-.785,8.858h-11.4v8.652h10.652L597.184-78.7l-9.647,2.6v9l17.734-4.913.131-1.463,2.031-22.774Z" transform="translate(-553.016 149.664)" fill="#fff"/>
</svg>
