<svg xmlns="http://www.w3.org/2000/svg" width="78.973" height="78.999" viewBox="0 0 78.973 78.999">
  <g id="git" transform="translate(0 22.103)">
    <path id="Path_37" data-name="Path 37" d="M77.5,13.879,43-20.613a5.089,5.089,0,0,0-7.195,0L28.646-13.45l9.084,9.084a6.039,6.039,0,0,1,7.647,7.7l8.756,8.756a6.045,6.045,0,1,1-3.624,3.41L42.364,7.357V28.847a6.386,6.386,0,0,1,1.6,1.145,6.048,6.048,0,1,1-6.578-1.322V6.984a6.56,6.56,0,0,1-1.983-1.3A6.06,6.06,0,0,1,34.1-.936L25.144-9.9,1.476,13.717a5.125,5.125,0,0,0,0,7.2l34.5,34.493a5.088,5.088,0,0,0,7.194,0L77.5,21.076a5.125,5.125,0,0,0,0-7.2" transform="translate(0 0)" fill="#f03c2e"/>
  </g>
</svg>
