<svg xmlns="http://www.w3.org/2000/svg" width="64.638" height="71.82" viewBox="0 0 64.638 71.82">
  <g id="heroku" transform="translate(0 25.076)">
    <path id="Path_36" data-name="Path 36" d="M43.092-2.633H35.91A27.922,27.922,0,0,0,41.3-14.3h7.182A21.053,21.053,0,0,1,43.092-2.633Zm-1.8,38.6V14.523c-.036-1.676-.843-3.69-4.489-3.69-7.3,0-15.495,3.673-15.576,3.71l-5.072,2.3V-14.3h7.182V6.085A45.443,45.443,0,0,1,36.808,3.652a11.544,11.544,0,0,1,8.544,3.21,11.2,11.2,0,0,1,3.126,7.563V35.971Zm-25.137,0V21.607l8.08,7.182ZM58.174-25.076H6.464A6.464,6.464,0,0,0,0-18.613V40.28a6.464,6.464,0,0,0,6.464,6.464h51.71a6.464,6.464,0,0,0,6.464-6.464V-18.613A6.464,6.464,0,0,0,58.174-25.076Z" fill="#472c8b"/>
  </g>
</svg>
