<svg id="html" xmlns="http://www.w3.org/2000/svg" width="69.292" height="97.538" viewBox="0 0 69.292 97.538">
  <path id="Path_1" data-name="Path 1" d="M69.292-133.293H0L6.493-62.855l28.153,7.983,28.142-7.983Z" transform="translate(0 152.41)" fill="#e34e25"/>
  <path id="Path_2" data-name="Path 2" d="M52.212-130.426v-8.727H47.8V-126H58.374v-4.424Zm-35.463-4.3H20.6V-126H25.02v-8.726h3.846v-4.424H16.749Zm28.795-4.424H40.87l-2.74,4.5-2.74-4.5H30.8V-126h4.28v-6.564l3.039,4.734.01.013.011-.013,3.122-4.867v6.7h4.28ZM10.4-134.791h-4v-4.362H1.975V-126H6.4v-4.362h4V-126h4.414v-13.15H10.4Z" transform="translate(4.467 139.153)"/>
  <path id="Path_3" data-name="Path 3" d="M10.62-131.534v66.719l22.8-6.463,5.552-60.257Z" transform="translate(24.026 156.389)" fill="#f06629"/>
  <path id="Path_4" data-name="Path 4" d="M47.536-128.885H3.936l2.44,26.375.052-.163H36.215l-.972,11.154-9.5,2.74-9.647-2.779-.579-6.753H6.759L8.01-84.819l17.731,5.037,17.731-5.037,2.44-26.48H14.306l-.817-8.828H46.73Z" transform="translate(8.905 162.382)" fill="#fff"/>
  <path id="Path_5" data-name="Path 5" d="M15.516-98.311H6.759L8.01-84.819l17.732,5.024v-8.984l-9.647-2.779Zm10.226-30.574H3.936l2.44,26.375.053-.163H25.742V-111.3H14.306l-.816-8.828H25.742Z" transform="translate(8.905 162.382)" fill="#eaeaeb"/>
</svg>
