<svg id="js" xmlns="http://www.w3.org/2000/svg" width="74.548" height="74.548" viewBox="0 0 74.548 74.548">
  <path id="Path_6" data-name="Path 6" d="M2.041,7.7H76.589V-66.849H2.041Z" transform="translate(-2.041 66.849)" fill="#f6de1d" fill-rule="evenodd"/>
  <path id="Path_7" data-name="Path 7" d="M9.191-26.291l5.7-3.453c1.1,1.951,2.1,3.6,4.5,3.6,2.3,0,3.753-.9,3.753-4.4v-23.82h7.006v23.919c0,7.256-4.253,10.559-10.459,10.559-5.6,0-8.857-2.9-10.509-6.405" transform="translate(10.41 88.589)"/>
  <path id="Path_8" data-name="Path 8" d="M18.229-26.787l5.7-3.3c1.5,2.452,3.453,4.254,6.906,4.254,2.9,0,4.754-1.451,4.754-3.453,0-2.4-1.9-3.253-5.1-4.653l-1.751-.751c-5.054-2.152-8.407-4.854-8.407-10.559,0-5.254,4-9.258,10.259-9.258,4.454,0,7.656,1.552,9.958,5.6l-5.455,3.5c-1.2-2.152-2.5-3-4.5-3a3.048,3.048,0,0,0-3.353,3c0,2.1,1.3,2.953,4.3,4.254l1.751.751c5.955,2.552,9.308,5.154,9.308,11.009,0,6.305-4.954,9.758-11.609,9.758-6.505,0-10.709-3.1-12.76-7.156" transform="translate(26.146 88.335)"/>
</svg>
