<svg xmlns="http://www.w3.org/2000/svg" width="45.16" height="96.718" viewBox="0 0 45.16 96.718">
  <g id="mongodb" transform="translate(0 20.728)">
    <path id="Path_15" data-name="Path 15" d="M30.981-9.948c-4.059-4.816-7.555-9.708-8.269-10.724a.181.181,0,0,0-.263,0c-.714,1.016-4.209,5.907-8.269,10.724-34.841,44.436,5.488,74.425,5.488,74.425l.338.226c.3,4.628,1.052,11.288,1.052,11.288h3.007s.752-6.623,1.053-11.288l.338-.264C25.493,64.477,65.823,34.488,30.981-9.948ZM22.562,63.8a16.682,16.682,0,0,1-2.293-2.333v-.076L22.449,13a.113.113,0,1,1,.226,0l2.18,48.387v.076A16.656,16.656,0,0,1,22.562,63.8Z" transform="translate(0 0)" fill="#001d2a"/>
  </g>
</svg>
