<?xml version="1.0" encoding="UTF-8" standalone="no"?><!DOCTYPE svg PUBLIC "-//W3C//DTD SVG 1.1//EN" "http://www.w3.org/Graphics/SVG/1.1/DTD/svg11.dtd"><svg width="100%" height="100%" viewBox="0 0 203 125" version="1.1" xmlns="http://www.w3.org/2000/svg" xmlns:xlink="http://www.w3.org/1999/xlink" xml:space="preserve" xmlns:serif="http://www.serif.com/" style="fill-rule:evenodd;clip-rule:evenodd;stroke-linejoin:round;stroke-miterlimit:2;"><g><path d="M100.389,124.293c-0.688,0 -1.331,-0.183 -1.927,-0.504l-6.102,-3.625c-0.918,-0.505 -0.459,-0.688 -0.184,-0.78c1.239,-0.413 1.468,-0.505 2.753,-1.239c0.138,-0.092 0.321,-0.046 0.459,0.046l4.68,2.799c0.183,0.092 0.413,0.092 0.55,-0l18.307,-10.599c0.184,-0.092 0.275,-0.275 0.275,-0.505l0,-21.151c0,-0.229 -0.091,-0.413 -0.275,-0.505l-18.307,-10.552c-0.183,-0.092 -0.413,-0.092 -0.55,-0l-18.307,10.552c-0.183,0.092 -0.275,0.322 -0.275,0.505l-0,21.151c-0,0.184 0.092,0.413 0.275,0.505l5.001,2.891c2.707,1.376 4.405,-0.23 4.405,-1.836l-0,-20.876c-0,-0.275 0.229,-0.55 0.55,-0.55l2.34,-0c0.276,-0 0.551,0.229 0.551,0.55l-0,20.876c-0,3.625 -1.973,5.736 -5.414,5.736c-1.055,-0 -1.881,-0 -4.221,-1.147l-4.818,-2.753c-1.193,-0.688 -1.927,-1.973 -1.927,-3.35l0,-21.151c0,-1.377 0.734,-2.661 1.927,-3.349l18.307,-10.599c1.147,-0.642 2.707,-0.642 3.854,-0l18.307,10.599c1.193,0.688 1.927,1.972 1.927,3.349l-0,21.151c-0,1.377 -0.734,2.662 -1.927,3.35l-18.307,10.598c-0.596,0.276 -1.285,0.413 -1.927,0.413Zm5.643,-14.544c-8.029,-0 -9.681,-3.671 -9.681,-6.791c0,-0.275 0.23,-0.55 0.551,-0.55l2.386,-0c0.275,-0 0.505,0.183 0.505,0.459c0.367,2.431 1.422,3.624 6.285,3.624c3.854,0 5.506,-0.871 5.506,-2.936c0,-1.193 -0.459,-2.065 -6.469,-2.661c-5.001,-0.505 -8.121,-1.606 -8.121,-5.598c-0,-3.716 3.12,-5.919 8.35,-5.919c5.873,0 8.764,2.019 9.131,6.424c-0,0.137 -0.046,0.275 -0.138,0.413c-0.092,0.092 -0.229,0.183 -0.367,0.183l-2.386,0c-0.229,0 -0.459,-0.183 -0.505,-0.413c-0.55,-2.523 -1.972,-3.349 -5.735,-3.349c-4.221,0 -4.726,1.468 -4.726,2.569c0,1.331 0.597,1.744 6.286,2.478c5.644,0.734 8.305,1.789 8.305,5.735c-0.046,4.038 -3.35,6.332 -9.177,6.332Z" style="fill:#539e43;fill-rule:nonzero;"/><path d="M137.094,0.138c-0.367,-0.184 -0.826,-0.184 -1.147,-0c-0.367,0.229 -0.596,0.596 -0.596,1.009l-0,29.823c-0,0.275 -0.138,0.551 -0.413,0.734c-0.275,0.138 -0.551,0.138 -0.826,0l-4.863,-2.799c-0.735,-0.413 -1.606,-0.413 -2.34,0l-19.454,11.241c-0.734,0.413 -1.193,1.193 -1.193,2.019l-0,22.436c-0,0.826 0.459,1.606 1.193,2.019l19.454,11.241c0.734,0.413 1.605,0.413 2.34,0l19.453,-11.241c0.734,-0.413 1.193,-1.193 1.193,-2.019l0,-55.929c0,-0.872 -0.459,-1.652 -1.193,-2.065l-11.608,-6.469Zm-1.789,57.076c-0,0.23 -0.092,0.413 -0.275,0.505l-6.653,3.854c-0.184,0.092 -0.413,0.092 -0.597,0l-6.653,-3.854c-0.183,-0.092 -0.275,-0.321 -0.275,-0.505l0,-7.708c0,-0.229 0.092,-0.413 0.275,-0.504l6.653,-3.854c0.184,-0.092 0.413,-0.092 0.597,-0l6.653,3.854c0.183,0.091 0.275,0.321 0.275,0.504l-0,7.708Z" style="fill:#333;fill-rule:nonzero;"/><g><clipPath id="_clip1"><path d="M73.759,28.759c0.708,-0.472 1.653,-0.472 2.361,0l19.128,11.102c0.709,0.472 1.181,1.181 1.181,2.125l0,22.204c0,0.944 -0.472,1.653 -1.181,2.125l-19.128,11.102c-0.708,0.472 -1.653,0.472 -2.361,-0l-19.128,-11.102c-0.709,-0.472 -1.181,-1.181 -1.181,-2.125l0,-22.204c0,-0.944 0.472,-1.653 1.181,-2.125l19.128,-11.102Z" clip-rule="nonzero"/></clipPath><g clip-path="url(#_clip1)"><path id="path-2" d="M76.118,28.722c-0.734,-0.413 -1.606,-0.413 -2.34,-0l-19.317,11.149c-0.734,0.413 -1.147,1.193 -1.147,2.019l0,22.344c0,0.826 0.459,1.606 1.147,2.019l19.317,11.149c0.734,0.413 1.606,0.413 2.34,0l19.316,-11.149c0.734,-0.413 1.147,-1.193 1.147,-2.019l-0,-22.344c-0,-0.826 -0.459,-1.606 -1.147,-2.019l-19.316,-11.149Z" style="fill:url(#_Linear2);fill-rule:nonzero;"/><g><path d="M73.732,28.722l-19.362,11.149c-0.734,0.413 -1.239,1.193 -1.239,2.019l-0,22.344c-0,0.551 0.229,1.056 0.596,1.468l21.748,-37.255c-0.55,-0.092 -1.193,-0.046 -1.743,0.275Z" style="fill:none;fill-rule:nonzero;"/><path d="M75.613,77.632c0.183,-0.046 0.367,-0.138 0.551,-0.23l19.362,-11.149c0.734,-0.413 1.192,-1.193 1.192,-2.019l0,-22.344c0,-0.597 -0.275,-1.193 -0.688,-1.606l-20.417,37.348Z" style="fill:none;fill-rule:nonzero;"/><path d="M95.48,39.871l-19.408,-11.149c-0.184,-0.092 -0.413,-0.184 -0.597,-0.23l-21.748,37.256c0.184,0.23 0.413,0.413 0.643,0.551l19.408,11.149c0.55,0.321 1.193,0.413 1.789,0.23l20.417,-37.348c-0.137,-0.184 -0.321,-0.321 -0.504,-0.459Z" style="fill:url(#_Linear3);fill-rule:nonzero;"/></g><path d="M96.718,64.234l0,-22.344c0,-0.826 -0.504,-1.606 -1.238,-2.019l-19.408,-11.149c-0.23,-0.138 -0.459,-0.23 -0.734,-0.275l21.243,36.292c0.092,-0.138 0.137,-0.321 0.137,-0.505Z" style="fill:none;fill-rule:nonzero;"/><path d="M54.37,39.871c-0.734,0.413 -1.239,1.193 -1.239,2.019l-0,22.344c-0,0.826 0.551,1.606 1.239,2.019l19.408,11.149c0.458,0.276 0.963,0.367 1.514,0.276l-20.785,-37.853l-0.137,0.046Z" style="fill:none;fill-rule:nonzero;"/><path d="M73.135,24.638l-0.275,0.138l0.367,0l-0.092,-0.138Z" style="fill:url(#_Linear4);"/><path d="M95.526,66.253c0.55,-0.321 0.963,-0.872 1.147,-1.468l-21.289,-36.338c-0.551,-0.092 -1.148,-0.046 -1.652,0.275l-19.271,11.103l20.785,37.898c0.275,-0.045 0.596,-0.137 0.872,-0.275l19.408,-11.195Z" style="fill:url(#_Linear5);"/><path d="M97.315,65.886l-0.138,-0.229l0,0.321l0.138,-0.092Z" style="fill:url(#_Linear6);"/><path d="M95.526,66.253l-19.362,11.149c-0.276,0.138 -0.551,0.23 -0.872,0.276l0.367,0.688l21.472,-12.434l0,-0.275l-0.55,-0.918c-0.092,0.642 -0.505,1.193 -1.055,1.514Z" style="fill:url(#_Linear7);"/></g></g><g><path d="M201.833,49.323c0.734,-0.413 1.147,-1.193 1.147,-2.019l0,-5.46c0,-0.826 -0.458,-1.606 -1.147,-2.019l-19.316,-11.195c-0.734,-0.413 -1.606,-0.413 -2.34,0l-19.454,11.241c-0.734,0.413 -1.193,1.193 -1.193,2.019l0,22.436c0,0.826 0.459,1.606 1.193,2.019l19.317,11.011c0.734,0.413 1.605,0.413 2.294,0l11.699,-6.515c0.367,-0.183 0.597,-0.596 0.597,-1.009c-0,-0.413 -0.23,-0.826 -0.597,-1.01l-19.545,-11.241c-0.367,-0.229 -0.597,-0.596 -0.597,-1.009l0,-7.02c0,-0.413 0.23,-0.826 0.597,-1.009l6.102,-3.487c0.367,-0.23 0.826,-0.23 1.193,-0l6.102,3.487c0.367,0.229 0.597,0.596 0.597,1.009l-0,5.506c-0,0.413 0.229,0.826 0.596,1.009c0.367,0.23 0.826,0.23 1.193,0l11.562,-6.744Z" style="fill:#333;fill-rule:nonzero;"/><path d="M181.049,48.267c0.138,-0.091 0.321,-0.091 0.459,0l3.716,2.157c0.138,0.092 0.23,0.229 0.23,0.413l-0,4.313c-0,0.183 -0.092,0.321 -0.23,0.413l-3.716,2.156c-0.138,0.092 -0.321,0.092 -0.459,0l-3.717,-2.156c-0.137,-0.092 -0.229,-0.23 -0.229,-0.413l0,-4.313c0,-0.184 0.092,-0.321 0.229,-0.413l3.717,-2.157Z" style="fill:#539e43;fill-rule:nonzero;"/></g><path d="M43.588,41.569c-0,-0.826 -0.459,-1.606 -1.193,-2.019l-19.454,-11.195c-0.321,-0.184 -0.688,-0.275 -1.055,-0.321l-0.184,-0c-0.367,-0 -0.734,0.137 -1.055,0.321l-19.454,11.195c-0.734,0.413 -1.193,1.193 -1.193,2.019l0.046,30.098c-0,0.413 0.229,0.826 0.596,1.009c0.367,0.23 0.826,0.23 1.147,0l11.563,-6.606c0.734,-0.413 1.192,-1.193 1.192,-2.019l0,-14.086c0,-0.826 0.459,-1.606 1.193,-2.019l4.91,-2.844c0.367,-0.23 0.78,-0.322 1.193,-0.322c0.413,0 0.826,0.092 1.147,0.322l4.909,2.844c0.734,0.413 1.193,1.193 1.193,2.019l-0,14.086c-0,0.826 0.459,1.606 1.193,2.019l11.562,6.606c0.367,0.23 0.826,0.23 1.193,0c0.367,-0.183 0.596,-0.596 0.596,-1.009l-0.045,-30.098Z" style="fill:#333;fill-rule:nonzero;"/></g><defs><linearGradient id="_Linear2" x1="0" y1="0" x2="1" y2="0" gradientUnits="userSpaceOnUse" gradientTransform="matrix(-17.4648,35.6281,-35.6281,-17.4648,82.8171,37.0332)"><stop offset="0" style="stop-color:#41873f;stop-opacity:1"/><stop offset="0.33" style="stop-color:#418b3d;stop-opacity:1"/><stop offset="0.64" style="stop-color:#419637;stop-opacity:1"/><stop offset="0.93" style="stop-color:#3fa92d;stop-opacity:1"/><stop offset="1" style="stop-color:#3fae2a;stop-opacity:1"/></linearGradient><linearGradient id="_Linear3" x1="0" y1="0" x2="1" y2="0" gradientUnits="userSpaceOnUse" gradientTransform="matrix(49.0049,-36.2074,36.2074,49.0049,72.0147,55.6789)"><stop offset="0" style="stop-color:#41873f;stop-opacity:1"/><stop offset="0.14" style="stop-color:#41873f;stop-opacity:1"/><stop offset="0.4" style="stop-color:#54a044;stop-opacity:1"/><stop offset="0.71" style="stop-color:#66b848;stop-opacity:1"/><stop offset="0.91" style="stop-color:#6cc04a;stop-opacity:1"/><stop offset="1" style="stop-color:#6cc04a;stop-opacity:1"/></linearGradient><linearGradient id="_Linear4" x1="0" y1="0" x2="1" y2="0" gradientUnits="userSpaceOnUse" gradientTransform="matrix(35.7572,0,0,35.7572,56.6591,24.6569)"><stop offset="0" style="stop-color:#6cc04a;stop-opacity:1"/><stop offset="0.09" style="stop-color:#6cc04a;stop-opacity:1"/><stop offset="0.29" style="stop-color:#66b848;stop-opacity:1"/><stop offset="0.6" style="stop-color:#54a044;stop-opacity:1"/><stop offset="0.86" style="stop-color:#41873f;stop-opacity:1"/><stop offset="1" style="stop-color:#41873f;stop-opacity:1"/></linearGradient><linearGradient id="_Linear5" x1="0" y1="0" x2="1" y2="0" gradientUnits="userSpaceOnUse" gradientTransform="matrix(44.6965,0,0,44.6965,52.6089,53.0628)"><stop offset="0" style="stop-color:#6cc04a;stop-opacity:1"/><stop offset="0.09" style="stop-color:#6cc04a;stop-opacity:1"/><stop offset="0.29" style="stop-color:#66b848;stop-opacity:1"/><stop offset="0.6" style="stop-color:#54a044;stop-opacity:1"/><stop offset="0.86" style="stop-color:#41873f;stop-opacity:1"/><stop offset="1" style="stop-color:#41873f;stop-opacity:1"/></linearGradient><linearGradient id="_Linear6" x1="0" y1="0" x2="1" y2="0" gradientUnits="userSpaceOnUse" gradientTransform="matrix(13.409,0,0,13.409,83.8068,65.7729)"><stop offset="0" style="stop-color:#6cc04a;stop-opacity:1"/><stop offset="0.09" style="stop-color:#6cc04a;stop-opacity:1"/><stop offset="0.29" style="stop-color:#66b848;stop-opacity:1"/><stop offset="0.6" style="stop-color:#54a044;stop-opacity:1"/><stop offset="0.86" style="stop-color:#41873f;stop-opacity:1"/><stop offset="1" style="stop-color:#41873f;stop-opacity:1"/></linearGradient><linearGradient id="_Linear7" x1="0" y1="0" x2="1" y2="0" gradientUnits="userSpaceOnUse" gradientTransform="matrix(44.6965,0,0,44.6965,52.6089,71.5899)"><stop offset="0" style="stop-color:#6cc04a;stop-opacity:1"/><stop offset="0.09" style="stop-color:#6cc04a;stop-opacity:1"/><stop offset="0.29" style="stop-color:#66b848;stop-opacity:1"/><stop offset="0.6" style="stop-color:#54a044;stop-opacity:1"/><stop offset="0.86" style="stop-color:#41873f;stop-opacity:1"/><stop offset="1" style="stop-color:#41873f;stop-opacity:1"/></linearGradient></defs></svg>