<?xml version="1.0" encoding="UTF-8" standalone="no"?><!DOCTYPE svg PUBLIC "-//W3C//DTD SVG 1.1//EN" "http://www.w3.org/Graphics/SVG/1.1/DTD/svg11.dtd"><svg width="100%" height="100%" viewBox="0 0 70 70" version="1.1" xmlns="http://www.w3.org/2000/svg" xmlns:xlink="http://www.w3.org/1999/xlink" xml:space="preserve" xmlns:serif="http://www.serif.com/" style="fill-rule:evenodd;clip-rule:evenodd;stroke-linejoin:round;stroke-miterlimit:2;"><path d="M62.361,13.535c-8.605,-11.145 -23.079,-16.005 -36.665,-12.319c-13.586,3.687 -23.62,15.201 -25.412,29.166c-1.792,13.965 5.004,27.639 17.224,34.635c12.22,6.997 27.448,5.949 38.59,-2.66c15.231,-11.754 17.985,-33.61 6.267,-48.82l-0.004,-0.002Z" style="fill:#ff6c37;fill-rule:nonzero;"/><path d="M13.366,53.537l2.901,-2.901l4.468,4.468l-7.107,-0.492c-0.3,-0.025 -0.533,-0.279 -0.533,-0.581c-0,-0.199 0.102,-0.386 0.271,-0.492l0,-0.002Zm33.074,-31.48c-0.204,-0.205 -0.394,-0.429 -0.568,-0.67c-1.707,-2.363 -1.353,-5.635 0.869,-7.547c2.222,-1.913 5.516,-1.828 7.615,0.192l-4.979,4.937l3.942,3.941c-2.194,1.316 -4.955,0.97 -6.752,-0.729l-0.014,-0.001l-0.151,0.152c0.275,0.095 0.535,0.248 0.76,0.46l0.027,-0.003c0.44,0.407 0.691,0.979 0.692,1.578c1.035,3.925 -4.326,9.648 -11.799,16.703l-0.002,-0.004l-4.001,-4.059l0.066,-0.065l-0.119,-0.12l-0.087,0.088l1.502,1.517c0,0 -0.062,0.01 -0.062,0.01l2.562,2.562c-4.525,3.957 -9.571,7.274 -14.998,9.863l-0.004,-0.02c-0.076,0.103 -0.076,0.245 -0,0.347l0.582,2.525c0.05,0.3 -0.094,0.6 -0.358,0.75c-0.264,0.15 -0.598,0.116 -0.829,-0.083l-3.973,-3.808l12.386,-12.475l0.048,0l2.125,-2.107l-0.124,-0.127c-0.008,0.036 -0.027,0.069 -0.054,0.093l-6.092,1.306c-0.037,0.007 -0.075,0.011 -0.112,0.011c-0.32,-0 -0.583,-0.263 -0.583,-0.583c0,-0.155 0.063,-0.304 0.173,-0.414l3.568,-3.539c0,0 0.03,0 0.067,0.008l-0.035,-0.037c14.213,-14.213 15.845,-13.178 18.712,-10.652Zm8.003,-7.94l-4.932,4.932l3.942,3.942c0.397,-0.228 0.767,-0.501 1.102,-0.813c2.137,-2.258 2.098,-5.854 -0.087,-8.065l-0.025,0.004Z" style="fill:#fff;fill-rule:nonzero;"/><path d="M31.873,37.381c-0.13,-0.002 -0.253,-0.056 -0.347,-0.145l-4.177,-4.177c-0.195,-0.224 -0.195,-0.522 0,-0.726c14.213,-14.213 16.187,-13.573 19.553,-10.527c0.112,0.09 0.179,0.231 0.175,0.377c0.022,0.143 -0.034,0.286 -0.146,0.376l-14.677,14.677c-0.103,0.094 -0.237,0.145 -0.376,0.145l-0.005,0Zm-3.422,-4.64l3.422,3.422l13.925,-13.924c-0.991,-1.24 -2.775,-1.542 -4.119,-0.697c-2.524,1.16 -6.585,4.582 -13.228,11.199Z" style="fill:#ff6c37;fill-rule:nonzero;"/><path d="M36.08,41.588c-0.128,-0.012 -0.251,-0.061 -0.348,-0.146l-4.06,-4.002c-0.061,-0.148 -0.061,-0.314 -0,-0.464c-0.045,-0.121 -0.045,-0.255 -0,-0.376l14.677,-14.677c0.213,-0.202 0.542,-0.202 0.755,-0c0.963,0.884 1.491,2.145 1.451,3.449c-0,3.915 -4.468,8.847 -12.068,16.041c-0.101,0.101 -0.235,0.161 -0.376,0.175l-0.031,-0Zm-3.248,-4.641l3.279,3.279c5.823,-5.51 11.311,-11.138 11.371,-14.968c0.031,-0.813 -0.237,-1.608 -0.755,-2.233l-13.895,13.922Z" style="fill:#ff6c37;fill-rule:nonzero;"/><path d="M24.478,37.847c-0.394,-0.004 -0.755,-0.213 -0.957,-0.551c-0.23,-0.43 -0.147,-0.966 0.204,-1.306l3.539,-3.567c0.262,-0.236 0.665,-0.236 0.927,-0l2.901,2.9c0.172,0.164 0.239,0.41 0.174,0.638c-0.065,0.229 -0.257,0.41 -0.492,0.464l-6.092,1.306l-0.204,0.116Zm3.247,-4.412l-3.279,3.279l5.425,-1.16l-2.146,-2.119Z" style="fill:#ff6c37;fill-rule:nonzero;"/><path d="M50.438,24.241c-2.463,-0.032 -4.674,-1.534 -5.608,-3.817c-0.934,-2.282 -0.416,-4.9 1.317,-6.656c2.399,-2.36 6.303,-2.36 8.702,-0c0.111,0.093 0.175,0.232 0.175,0.377c0,0.146 -0.064,0.284 -0.175,0.378l-4.699,4.439l3.567,3.48c0.117,0.112 0.172,0.275 0.146,0.435c-0.018,0.157 -0.103,0.291 -0.233,0.376c-0.958,0.6 -2.061,0.93 -3.192,0.956l0,0.032Zm0,-11.255c-2.79,0.016 -5.076,2.317 -5.076,5.107c-0,1.346 0.532,2.639 1.479,3.595c1.479,1.482 3.709,1.908 5.629,1.075l-3.422,-3.423c-0.112,-0.089 -0.175,-0.224 -0.175,-0.363c-0,-0.138 0.067,-0.275 0.175,-0.362l4.524,-4.554c-0.899,-0.689 -2,-1.066 -3.134,-1.073l0,-0.002Z" style="fill:#ff6c37;fill-rule:nonzero;"/><path d="M53.339,23.43c-0.134,0.007 -0.26,-0.045 -0.347,-0.146l-3.942,-3.941c-0.112,-0.09 -0.175,-0.224 -0.175,-0.363c0,-0.139 0.067,-0.276 0.175,-0.363l4.932,-4.845c0.096,-0.145 0.26,-0.233 0.434,-0.233c0.175,0 0.336,0.09 0.435,0.233c1.168,1.146 1.827,2.715 1.827,4.351c0,1.636 -0.659,3.205 -1.827,4.351c-0.341,0.363 -0.733,0.672 -1.16,0.927c-0.108,0.054 -0.233,0.067 -0.348,0.029l-0.004,0Zm-3.192,-4.468l3.279,3.279c0.224,-0.157 0.439,-0.332 0.639,-0.522c0.963,-0.961 1.505,-2.266 1.507,-3.626c0.001,-1.217 -0.443,-2.393 -1.248,-3.306l-4.177,4.175Z" style="fill:#ff6c37;fill-rule:nonzero;"/><path d="M33.177,38.629c-0.13,-0.002 -0.253,-0.056 -0.347,-0.146l-2.204,-2.204c-0.195,-0.224 -0.195,-0.521 -0,-0.725l13.14,-13.053c0.5,-0.503 1.181,-0.786 1.89,-0.786c1.462,-0 2.665,1.203 2.665,2.665c0,0.031 -0,0.063 -0.001,0.094c-0.029,0.732 -0.354,1.422 -0.896,1.915l-13.925,12.184c-0.1,0.071 -0.224,0.103 -0.347,0.087l0.025,-0.031Zm-1.537,-2.726l1.452,1.451l13.633,-11.87c0.338,-0.292 0.539,-0.714 0.551,-1.16c0.018,-0.448 -0.164,-0.885 -0.493,-1.187c-0.634,-0.632 -1.657,-0.632 -2.291,-0l-12.852,12.766Z" style="fill:#ff6c37;fill-rule:nonzero;"/><path d="M20.679,55.104c-0.329,-0.006 -0.64,-0.141 -0.873,-0.376l-3.772,-3.772c-0.112,-0.089 -0.175,-0.224 -0.175,-0.362c0,-0.139 0.067,-0.276 0.175,-0.363l12.475,-12.476c0.07,-0.074 0.162,-0.125 0.262,-0.145l4.352,-0c0.112,-0.04 0.235,-0.04 0.347,-0l2.901,2.9c0.112,0.103 0.165,0.256 0.145,0.403c0.005,0.146 -0.06,0.287 -0.174,0.377l-0.233,0.201c-4.544,3.788 -9.543,6.994 -14.881,9.544l0.582,2.32c0.09,0.367 0.005,0.755 -0.224,1.053c-0.228,0.298 -0.582,0.477 -0.963,0.484l0.056,0.212Zm-3.539,-4.553l3.423,3.481c0.067,0.058 0.165,0.058 0.233,-0c0.044,-0.061 0.044,-0.144 -0,-0.202l-0.583,-2.524c-0.094,-0.374 0.09,-0.762 0.435,-0.927c5.195,-2.515 10.065,-5.652 14.504,-9.34l-2.401,-2.381l-3.888,0l-11.723,11.893Z" style="fill:#ff6c37;fill-rule:nonzero;"/><path d="M20.822,55.541l-7.077,-0.493c-0.565,-0.047 -1.005,-0.526 -1.005,-1.093c-0,-0.285 0.11,-0.559 0.308,-0.763l2.901,-2.901c0.224,-0.195 0.522,-0.195 0.725,0l4.44,4.439c0.125,0.173 0.125,0.408 -0,0.58c-0.068,0.108 -0.171,0.191 -0.292,0.233l0,-0.002Zm-7.077,-1.624l5.823,0.377l-3.191,-2.988l-2.632,2.611Z" style="fill:#ff6c37;fill-rule:nonzero;"/><path d="M27.582,39.874c-0.199,0.006 -0.382,-0.109 -0.464,-0.291c-0.125,-0.172 -0.125,-0.408 0,-0.58l3.364,-3.393c0.213,-0.202 0.542,-0.202 0.755,-0l2.464,2.463c0.099,0.16 0.099,0.363 -0,0.522c-0.045,0.196 -0.206,0.346 -0.405,0.377l-5.824,0.873l0.11,0.029Zm3.393,-3.191l-1.886,1.885l3.248,-0.492l-1.362,-1.393Z" style="fill:#ff6c37;fill-rule:nonzero;"/><path d="M29.235,39.5c-0.385,-0.004 -0.74,-0.215 -0.927,-0.551c-0.229,-0.407 -0.157,-0.896 0.174,-1.247l2.117,-2.117c0.213,-0.201 0.542,-0.201 0.755,0l2.463,2.464c0.15,0.141 0.224,0.358 0.135,0.553c-0.09,0.195 -0.224,0.329 -0.453,0.345l-4.06,0.522l-0.204,0.031Zm-0,-1.075l3.075,-0.376l-1.366,-1.366l-1.74,1.74l0.031,0.002Zm25.237,-20.973c-0.112,-0.19 -0.349,-0.264 -0.551,-0.174c-0.096,0.049 -0.17,0.134 -0.224,0.239c-0.053,0.105 -0.022,0.215 0.029,0.314c0.202,0.425 0.148,0.934 -0.145,1.305c-0.076,0.072 -0.119,0.171 -0.119,0.276c0,0.105 0.045,0.202 0.119,0.275c0.074,0.03 0.157,0.03 0.233,0c0.134,0.036 0.282,-0.008 0.376,-0.116c0.488,-0.596 0.589,-1.42 0.262,-2.117l0.02,-0.002Z" style="fill:#ff6c37;fill-rule:nonzero;"/></svg>