<svg xmlns="http://www.w3.org/2000/svg" width="81.727" height="72.734" viewBox="0 0 81.727 72.734">
  <g id="react" transform="translate(-947 -3736.536)">
    <g id="Group_26" data-name="Group 26" transform="translate(947 3736.536)">
      <path id="Path_34" data-name="Path 34" d="M15.4-10.547a7.3,7.3,0,0,1,7.3,7.3,7.3,7.3,0,0,1-7.3,7.3,7.3,7.3,0,0,1-7.3-7.3A7.3,7.3,0,0,1,15.4-10.547Z" transform="translate(25.49 39.534)" fill="#61d9fa" fill-rule="evenodd"/>
      <path id="Path_35" data-name="Path 35" d="M40.888-8.615A43.309,43.309,0,0,1,49.1-14.831a17.523,17.523,0,0,1,8.315-2.7c.132,0,.132,0,.264,0A7.193,7.193,0,0,1,62.4-15.758c3.177,2.9,3.583,7.675,3.49,11.7a46.045,46.045,0,0,1-1.138,9.02,37.929,37.929,0,0,1,11.927,5.825q.565.422,1.1.883.454.391.88.812.307.3.6.626c1.738,1.935,2.952,4.6,2.287,7.264-.891,3.562-4.139,6.229-7.531,8.214a43.149,43.149,0,0,1-9.1,3.947,32.567,32.567,0,0,1,.712,14.382A16.729,16.729,0,0,1,65,49.274c-1.115,3.179-4,5.967-7.72,5.893-6.014-.119-11.466-4.224-16.158-8.8a36.869,36.869,0,0,1-10.233,7.122c-3.616,1.652-7.993,2.779-11.3.131-3.086-2.47-3.7-6.785-3.767-10.424a42.473,42.473,0,0,1,1.2-10.467,41.691,41.691,0,0,1-9.222-4C3.555,26.224-.96,22.531.178,17.322c.927-4.241,4.928-6.95,8.456-8.823a46.377,46.377,0,0,1,8.549-3.457c-.39-1.6-.71-3.215-.947-4.851-.591-4.076-.8-8.315.669-12.249a7.874,7.874,0,0,1,7.208-5.4h.137c4.335.041,8.462,2.382,12.113,5.085A53.611,53.611,0,0,1,40.888-8.615ZM61.541,33.456a72.532,72.532,0,0,1-11.264,1.693,79.231,79.231,0,0,1-6.723,8.7c3.448,3.314,7.4,6.4,11.748,7.524,2.935.754,5.9-.42,6.843-4.866A28.713,28.713,0,0,0,61.541,33.456Zm-41.092.178a46.986,46.986,0,0,0-1.038,6.59c-.268,3.218-.355,6.652,1.355,9.485,1.527,2.528,5.439,2.107,8.8.541A33.257,33.257,0,0,0,38.611,43.8,83.3,83.3,0,0,1,31.635,35.2,72.114,72.114,0,0,1,20.449,33.635ZM45.8,35.4c-1.715.06-3.433.084-5.146.081-1.532,0-3.072-.022-4.613-.067a76.51,76.51,0,0,0,4.98,5.881c1.251-1.389,2.439-2.84,3.577-4.311Q45.21,36.194,45.8,35.4ZM48.473,5.947c-2.6-.2-5.213-.294-7.817-.291-2.374.008-4.779.059-7.184.193q-1.416,2.1-2.733,4.273c-1.7,2.788-3.324,5.665-4.786,8.612A97.026,97.026,0,0,0,33.426,31.79c2.409.138,4.828.191,7.239.2,2.555,0,5.131-.037,7.7-.174a97.61,97.61,0,0,0,7.5-12.937A103.107,103.107,0,0,0,48.473,5.947Zm9.269,16.989c-1.571,2.93-3.28,5.782-5.045,8.54a61.821,61.821,0,0,0,7.883-1.3C59.764,27.7,58.776,25.273,57.742,22.936Zm-33.62-.264a67.158,67.158,0,0,0-2.76,7.5,65.55,65.55,0,0,0,7.568,1.246C27.275,28.54,25.643,25.628,24.122,22.672ZM18.078,8.291a36.881,36.881,0,0,0-10.03,4.615c-2.634,1.766-5.319,4.456-4.263,7.169,1.535,3.946,6.07,6.127,10.079,7.762q2.009.819,4.083,1.439a76.2,76.2,0,0,1,4.205-10.6A78.587,78.587,0,0,1,18.078,8.291Zm45.762.184a70.8,70.8,0,0,1-4.075,10.473q.352.755.693,1.509a87.191,87.191,0,0,1,3.494,8.792A39.062,39.062,0,0,0,72.8,25.243c2.537-1.569,5.285-3.728,5.447-6.317.141-2.248-1.832-3.91-3.346-5.1A31.924,31.924,0,0,0,63.84,8.475Zm-10.8-2.061c1.694,2.714,3.249,5.506,4.679,8.318Q59.174,11.222,60.3,7.6C57.9,7.087,55.459,6.716,53.036,6.414Zm-23.952-.22a65.71,65.71,0,0,0-7.647,1.221,74.105,74.105,0,0,0,2.706,7.311c.938-1.78,1.911-3.528,2.895-5.239C27.037,9.487,28.033,7.831,29.083,6.194ZM38.4-6.095C35-9.338,31.133-12.3,26.8-13.552a9.515,9.515,0,0,0-2.661-.414c-4.148.048-5.147,6.307-4.7,11.506a44.521,44.521,0,0,0,1.1,6.616A75.117,75.117,0,0,1,31.552,2.513,79.86,79.86,0,0,1,38.4-6.095ZM61.308,4.061c1.36-5.226,2.081-10.725-.015-15.406q-.1-.221-.212-.436a3.935,3.935,0,0,0-3.634-2.263c-3.372.054-6.537,1.981-9.408,4.069a48.033,48.033,0,0,0-4.625,3.842A72.127,72.127,0,0,1,50.448,2.5,73.96,73.96,0,0,1,61.308,4.061ZM40.884-3.594a68.621,68.621,0,0,0-4.868,5.85c1.628-.061,3.252-.088,4.866-.091h.236c1.557,0,3.127.03,4.7.083A73.142,73.142,0,0,0,40.884-3.594Z" transform="translate(0 17.536)" fill="#61d9fa" fill-rule="evenodd"/>
    </g>
  </g>
</svg>
