<?xml version="1.0" encoding="UTF-8" standalone="no"?><!DOCTYPE svg PUBLIC "-//W3C//DTD SVG 1.1//EN" "http://www.w3.org/Graphics/SVG/1.1/DTD/svg11.dtd"><svg width="100%" height="100%" viewBox="0 0 130 130" version="1.1" xmlns="http://www.w3.org/2000/svg" xmlns:xlink="http://www.w3.org/1999/xlink" xml:space="preserve" xmlns:serif="http://www.serif.com/" style="fill-rule:evenodd;clip-rule:evenodd;stroke-linejoin:round;stroke-miterlimit:2;"><g><path d="M130,8.125c0,-4.484 -3.641,-8.125 -8.125,-8.125l-113.75,0c-4.484,0 -8.125,3.641 -8.125,8.125l0,113.75c0,4.484 3.641,8.125 8.125,8.125l113.75,0c4.484,0 8.125,-3.641 8.125,-8.125l0,-113.75Z" style="fill:url(#_Linear1);"/><path d="M102.143,65.324c-0,-1.131 -0.836,-1.783 -1.862,-1.459l-70.562,22.382c-1.028,0.327 -1.862,1.509 -1.862,2.639l0,22.876c0,1.131 0.834,1.786 1.862,1.459l70.562,-22.38c1.026,-0.326 1.862,-1.509 1.862,-2.641l-0,-22.876Z" style="fill:url(#_Linear2);"/><path d="M27.857,64.722c0,1.131 0.834,2.314 1.861,2.64l70.564,22.384c1.027,0.326 1.861,-0.328 1.861,-1.458l-0,-22.876c-0,-1.13 -0.834,-2.312 -1.861,-2.639l-70.564,-22.383c-1.027,-0.326 -1.861,0.326 -1.861,1.457l0,22.875Z" style="fill:#ff9800;"/><path d="M102.143,18.374c-0,-1.132 -0.836,-1.786 -1.862,-1.46l-70.562,22.381c-1.028,0.326 -1.862,1.509 -1.862,2.64l0,22.876c0,1.132 0.834,1.784 1.862,1.46l70.562,-22.383c1.026,-0.326 1.862,-1.509 1.862,-2.638l-0,-22.876Z" style="fill:#ff9800;"/></g><defs><linearGradient id="_Linear1" x1="0" y1="0" x2="1" y2="0" gradientUnits="userSpaceOnUse" gradientTransform="matrix(7.9602e-15,130,-130,7.9602e-15,65,0)"><stop offset="0" style="stop-color:#4d4d4d;stop-opacity:1"/><stop offset="1" style="stop-color:#444;stop-opacity:1"/></linearGradient><linearGradient id="_Linear2" x1="0" y1="0" x2="1" y2="0" gradientUnits="userSpaceOnUse" gradientTransform="matrix(6.36109,-21.2774,21.2774,6.36109,68.8012,98.2213)"><stop offset="0" style="stop-color:#ff9700;stop-opacity:1"/><stop offset="0.53" style="stop-color:#f48e00;stop-opacity:1"/><stop offset="1" style="stop-color:#ce6e00;stop-opacity:1"/></linearGradient></defs></svg>